<svg width="75" height="40" viewBox="0 0 75 40" fill="none" xmlns="http://www.w3.org/2000/svg">
<path d="M9.40826 28.1215C6.61044 20.6646 2.29661 16.875 0.34829 15.3942C0.232788 15.3064 0.246011 15.131 0.376876 15.0684C1.93447 14.3231 5.25654 13.6751 9.27836 15.4709C13.507 17.359 16.8468 23.6603 19.0868 27.8865C19.6782 29.0023 20.1929 29.9734 20.6271 30.6805C23.7104 27.7347 26.1146 22.674 28.521 17.609C30.7263 12.9671 32.9333 8.32147 35.6664 5.29658C41.033 -0.642896 46.8601 -0.405228 50.266 0.982661C50.4455 1.05581 50.4201 1.33116 50.2395 1.4014C45.427 3.27239 38.6932 17.2472 34.4846 25.9815C34.1201 26.7379 33.7746 27.455 33.4509 28.1215C29.2341 36.8039 26.1422 39.4388 21.4468 39.4388C17.0507 39.4388 12.5972 36.6209 9.40826 28.1215Z" fill="#4E4CFF"/>
<path fill-rule="evenodd" clip-rule="evenodd" d="M37.8457 25.3781C40.2214 20.1517 44.0817 18.6076 48.8924 18.6076C51.7431 18.6076 54.0762 20.815 54.0762 23.25C54.0762 29.7608 46.6705 31.2969 42.5376 31.5547C42.7356 32.7227 43.2722 34.9197 45.6446 35.2082C47.303 35.4099 48.4884 34.7047 49.4371 34.1403C49.8455 33.8973 50.2101 33.6804 50.5496 33.5732C51.6391 33.2291 52.8411 33.2481 54.7935 33.9447C54.9066 33.985 54.9573 34.1165 54.9002 34.222C52.9739 37.7786 49.4345 39.7606 45.6446 39.7606C41.7842 39.7606 39.9143 39.0233 38.4953 37.4844C36.5447 35.3691 35.4701 30.6045 37.8457 25.3781ZM42.8647 27.1629C43.5351 25.7735 45.1731 23.0477 46.9452 23.0477C49.1604 23.0477 48.9142 25.4816 47.6289 26.0969C46.9105 26.4408 44.7711 27.4232 42.8647 27.1629Z" fill="#4E4CFF"/>
<path fill-rule="evenodd" clip-rule="evenodd" d="M68.0167 18.2879C63.2061 18.2879 59.3457 19.8321 56.9701 25.0584C54.5945 30.2848 55.6691 35.0494 57.6197 37.1647C59.0387 38.7036 60.9085 39.441 64.7689 39.441C68.5588 39.441 72.0983 37.4589 74.0245 33.9023C74.0817 33.7968 74.0309 33.6653 73.9179 33.625C71.9655 32.9284 70.7635 32.9095 69.674 33.2535C69.3344 33.3607 68.9699 33.5776 68.5615 33.8206C67.6128 34.385 66.4274 35.0902 64.7689 34.8885C62.3965 34.6 61.8599 32.403 61.662 31.235C65.7948 30.9773 73.2005 29.4411 73.2005 22.9304C73.2005 20.4954 70.8675 18.2879 68.0167 18.2879ZM61.9891 26.8432C62.6595 25.4539 64.2974 22.728 66.0696 22.728C68.2847 22.728 68.0386 25.1619 66.7532 25.7772C66.0348 26.1211 63.8955 27.1035 61.9891 26.8432Z" fill="#4E4CFF"/>
</svg>
